#!OML:ASF X:\für Bonn\!DataBase\2005_08_10_Bjorn_Final\c3d\bjorn.ASF
:FULLY-SPECIFIED
:DEGREES
91
root -17.0612 19.4102 -0.127655 1918.22 -87.5616 -477.526
lowerback -4.25842 6.9017 -3.39378
upperback 6.2963 9.86758 -8.51421
thorax 10.1585 4.78466 -6.0141
lowerneck -6.08399 -9.75078 2.39232
upperneck 3.13376 -13.6247 6.3389
head 2.33835 -6.63095 1.06357
rclavicle 6.59965e-014 -1.59028e-014
rhumerus 44.0585 -22.292 -69.7728
rradius 51.8743
rwrist -28.5456
rhand -21.1077 13.7023
rfingers 7.12502
rthumb 5.27037 -16.2121
lclavicle 6.59965e-014 -1.59028e-014
lhumerus -23.0215 -0.724904 78.8626
lradius 26.4023
lwrist -15.3646
lhand -26.9105 -8.55048
lfingers 7.12502
lthumb -0.333628 21.429
rfemur 1.27172 -4.04072 15.3138
rtibia 43.4805
rfoot -0.661334 8.56251
rtoes -16.1641
lfemur -19.2062 5.99039 -16.865
ltibia 27.236
lfoot -1.36971 -10.811
ltoes -3.72187
92
root -17.1173 19.4167 -0.118215 1917.15 -87.5425 -476.41
lowerback -4.13527 6.95981 -3.44766
upperback 6.33149 9.94012 -8.59556
thorax 10.1412 4.81848 -6.07731
lowerneck -6.12429 -9.81877 2.54023
upperneck 3.08593 -13.7241 6.29604
head 2.31655 -6.68169 1.02273
rclavicle 1.82882e-014 -4.77083e-014
rhumerus 44.7281 -22.1959 -68.6711
rradius 50.4751
rwrist -28.3815
rhand -20.9907 13.7645
rfingers 7.12502
rthumb 5.38328 -16.1471
lclavicle 1.82882e-014 -4.77083e-014
lhumerus -22.7968 -0.745886 78.8552
lradius 26.3905
lwrist -15.337
lhand -27.1374 -8.47481
lfingers 7.12502
lthumb -0.552779 21.5042
rfemur 0.802843 -4.30099 15.4307
rtibia 43.3578
rfoot -1.37033 8.73305
rtoes -15.9202
lfemur -19.0266 5.97767 -16.8517
ltibia 27.1694
lfoot -1.54235 -10.8462
ltoes -3.86139
93
root -17.1737 19.4242 -0.108803 1916.09 -87.5191 -475.32
lowerback -4.0319 7.02612 -3.48351
upperback 6.3687 10.0248 -8.67704
thorax 10.1429 4.85956 -6.14685
lowerneck -6.09428 -9.89802 2.68999
upperneck 2.97335 -13.8313 6.26016
head 2.26102 -6.7402 0.989422
rclavicle 1.24042e-013 -4.45278e-014
rhumerus 45.3478 -22.09 -67.57
rradius 49.1211
rwrist -28.3081
rhand -20.8163 13.7433
rfingers 7.12502
rthumb 5.55168 -16.1639
lclavicle 1.24042e-013 -4.45278e-014
lhumerus -22.6108 -0.734531 78.8326
lradius 26.4095
lwrist -15.4091
lhand -27.1116 -8.42854
lfingers 7.12502
lthumb -0.527902 21.5505
rfemur 0.367149 -4.57845 15.5474
rtibia 43.1944
rfoot -2.06356 8.93353
rtoes -15.9694
lfemur -18.839 5.93295 -16.8278
ltibia 27.128
lfoot -1.71904 -10.8227
ltoes -3.7811
94
root -17.2281 19.4302 -0.099043 1914.64 -87.5297 -473.826
lowerback -3.92731 7.0921 -3.52309
upperback 6.39332 10.1088 -8.77998
thorax 10.134 4.90109 -6.23877
lowerneck -6.07893 -9.97533 2.88401
upperneck 2.90777 -13.9433 6.21923
head 2.21993 -6.79887 0.945859
rclavicle -1.03368e-014 3.18055e-015
rhumerus 45.8519 -21.9683 -66.4106
rradius 47.8415
rwrist -28.2184
rhand -20.6599 13.6592
rfingers 7.12502
rthumb 5.70271 -16.2441
lclavicle -1.03368e-014 3.18055e-015
lhumerus -22.4259 -0.742133 78.7935
lradius 26.3792
lwrist -15.457
lhand -26.983 -8.37553
lfingers 7.12502
lthumb -0.403671 21.6038
rfemur -0.0766514 -4.88326 15.6373
rtibia 43.004
rfoot -2.63783 9.0979
rtoes -15.1852
lfemur -18.6727 5.8511 -16.829
ltibia 27.0831
lfoot -1.86633 -10.8276
ltoes -3.57936
95
root -17.2826 19.4355 -0.090928 1913.44 -87.4869 -472.564
lowerback -3.86848 7.16007 -3.54531
upperback 6.39655 10.1972 -8.85874
thorax 10.1264 4.94534 -6.30816
lowerneck -6.03585 -10.047 3.08751
upperneck 2.86151 -14.047 6.16293
head 2.178 -6.85347 0.897923
rclavicle 8.42847e-014 -7.63333e-014
rhumerus 46.2698 -21.7744 -65.2146
rradius 46.6357
rwrist -28.0969
rhand -20.5018 13.5412
rfingers 7.12502
rthumb 5.8554 -16.3579
lclavicle 8.42847e-014 -7.63333e-014
lhumerus -22.2963 -0.75553 78.7537
lradius 26.3784
lwrist -15.4511
lhand -26.6961 -8.36594
lfingers 7.12502
lthumb -0.126593 21.6138
rfemur -0.530701 -5.15177 15.7937
rtibia 42.7819
rfoot -3.19137 9.27074
rtoes -14.1814
lfemur -18.5403 5.87281 -16.788
ltibia 27.0535
lfoot -1.99284 -10.8838
ltoes -3.41372
96
root -17.3367 19.4409 -0.0823812 1912.23 -87.4672 -471.331
lowerback -3.78243 7.2325 -3.5602
upperback 6.42048 10.2897 -8.94531
thorax 10.1302 4.99245 -6.39258
lowerneck -6.00707 -10.1155 3.33528
upperneck 2.79024 -14.1474 6.08355
head 2.12468 -6.90747 0.836943
rclavicle -6.91771e-014 -3.18055e-015
rhumerus 46.6225 -21.551 -63.9788
rradius 45.4454
rwrist -27.8769
rhand -20.1812 13.1231
rfingers 7.12502
rthumb 6.1649 -16.7672
lclavicle -6.91771e-014 -3.18055e-015
lhumerus -22.1716 -0.846321 78.7166
lradius 26.3774
lwrist -15.3841
lhand -26.4364 -8.32643
lfingers 7.12502
lthumb 0.124211 21.6533
rfemur -0.922326 -5.43433 15.9201
rtibia 42.5277
rfoot -3.70728 9.48846
rtoes -13.2865
lfemur -18.3678 5.83734 -16.7653
ltibia 27.0376
lfoot -2.1721 -10.9131
ltoes -3.50847
97
root -17.3894 19.4447 -0.0746466 1910.84 -87.4496 -469.891
lowerback -3.70733 7.30683 -3.59047
upperback 6.41057 10.3844 -9.02973
thorax 10.0991 5.03976 -6.46537
lowerneck -5.95952 -10.197 3.60484
upperneck 2.76172 -14.2669 5.98262
head 2.07878 -6.96992 0.765849
rclavicle -5.96354e-014 7.31528e-014
rhumerus 46.8604 -21.2713 -62.6839
rradius 44.2591
rwrist -27.578
rhand -19.8383 12.722
rfingers 7.12502
rthumb 6.49596 -17.1584
lclavicle -5.96354e-014 7.31528e-014
lhumerus -22.1047 -1.00557 78.6911
lradius 26.3547
lwrist -15.2906
lhand -26.1898 -8.23005
lfingers 7.12502
lthumb 0.3624 21.7494
rfemur -1.33866 -5.70172 16.0676
rtibia 42.2477
rfoot -4.22176 9.66025
rtoes -12.4919
lfemur -18.2515 5.84261 -16.7471
ltibia 27.0458
lfoot -2.32638 -10.9767
ltoes -3.32654
98
root -17.4423 19.4481 -0.067223 1910.12 -87.4193 -469.136
lowerback -3.67636 7.38223 -3.62212
upperback 6.43144 10.4872 -9.09858
thorax 10.1266 5.08943 -6.51375
lowerneck -5.97575 -10.2629 3.88554
upperneck 2.7277 -14.3682 5.85742
head 2.03891 -7.02274 0.683562
rclavicle -5.1684e-014 5.725e-014
rhumerus 47.1509 -20.9816 -61.4819
rradius 43.0677
rwrist -27.1084
rhand -19.2533 12.0924
rfingers 7.12502
rthumb 7.06063 -17.7698
lclavicle -5.1684e-014 5.725e-014
lhumerus -22.0068 -1.12704 78.6651
lradius 26.3067
lwrist -15.2147
lhand -25.9157 -8.22156
lfingers 7.12502
lthumb 0.627183 21.7573
rfemur -1.73664 -5.96554 16.2092
rtibia 41.9473
rfoot -4.69555 9.89252
rtoes -11.9711
lfemur -18.1191 5.84583 -16.7174
ltibia 27.0529
lfoot -2.45465 -10.9954
ltoes -3.03684
99
root -17.4932 19.4513 -0.0601552 1908.6 -87.3787 -467.561
lowerback -3.6203 7.45773 -3.626
upperback 6.42194 10.5838 -9.16707
thorax 10.1093 5.1393 -6.58099
lowerneck -5.95233 -10.3401 4.1553
upperneck 2.72986 -14.4838 5.73603
head 2.00516 -7.08187 0.605251
rclavicle -2.70347e-014 9.22361e-014
rhumerus 47.4126 -20.6977 -60.3682
rradius 41.82
rwrist -26.4476
rhand -18.6373 11.5812
rfingers 7.12502
rthumb 7.65522 -18.2603
lclavicle -2.70347e-014 9.22361e-014
lhumerus -21.9617 -1.27528 78.6312
lradius 26.2252
lwrist -15.1928
lhand -25.6371 -8.19697
lfingers 7.12502
lthumb 0.896271 21.7809
rfemur -2.13572 -6.24587 16.3936
rtibia 41.6284
rfoot -5.19322 10.1113
rtoes -11.8731
lfemur -18.0143 5.85826 -16.672
ltibia 27.0688
lfoot -2.6323 -11.0845
ltoes -3.0783
100
root -17.5434 19.4538 -0.0540003 1907.29 -87.3576 -466.203
lowerback -3.58442 7.52071 -3.64955
upperback 6.41885 10.6674 -9.24348
thorax 10.1082 5.18113 -6.64591
lowerneck -5.92776 -10.4163 4.42135
upperneck 2.71284 -14.5975 5.63313
head 1.96651 -7.14072 0.534341
rclavicle 8.50798e-014 -6.67916e-014
rhumerus 47.5725 -20.3313 -59.1894
rradius 40.7157
rwrist -25.8863
rhand -18.0522 11.1475
rfingers 7.12502
rthumb 8.21997 -18.6726
lclavicle 8.50798e-014 -6.67916e-014
lhumerus -21.913 -1.43067 78.5694
lradius 26.1066
lwrist -15.1515
lhand -25.3687 -8.2611
lfingers 7.12502
lthumb 1.15543 21.7155
rfemur -2.5205 -6.52692 16.5576
rtibia 41.2886
rfoot -5.75991 10.3756
rtoes -12.0315
lfemur -17.9124 5.86294 -16.6424
ltibia 27.0892
lfoot -2.75579 -11.1571
ltoes -2.68401
101
root -17.5929 19.4569 -0.047988 1905.74 -87.3376 -464.618
lowerback -3.57155 7.5829 -3.66769
upperback 6.4602 10.7553 -9.30301
thorax 10.1692 5.2241 -6.69116
lowerneck -6.01048 -10.4829 4.65546
upperneck 2.72324 -14.7061 5.53989
head 1.9588 -7.19383 0.463971
rclavicle -1.41535e-013 2.22639e-014
rhumerus 47.6157 -19.9053 -57.869
rradius 39.8453
rwrist -25.6722
rhand -17.4213 10.7478
rfingers 7.12502
rthumb 8.8288 -19.0475
lclavicle -1.41535e-013 2.22639e-014
lhumerus -21.8054 -1.52556 78.5321
lradius 25.9628
lwrist -15.159
lhand -25.096 -8.33223
lfingers 7.12502
lthumb 1.41882 21.6428
rfemur -2.87559 -6.80495 16.7235
rtibia 40.931
rfoot -6.39125 10.6535
rtoes -12.4472
lfemur -17.8005 5.9062 -16.6133
ltibia 27.1013
lfoot -2.87818 -11.2907
ltoes -2.47191
